<?xml version="1.0" encoding="utf-8"?>
<!-- Generator: Adobe Illustrator 20.1.0, SVG Export Plug-In . SVG Version: 6.00 Build 0)  -->
<svg version="1.1" id="Layer_1" xmlns="http://www.w3.org/2000/svg" xmlns:xlink="http://www.w3.org/1999/xlink" x="0px" y="0px"
	 viewBox="0 0 215.449 114.044" style="enable-background:new 0 0 215.449 114.044;" xml:space="preserve">
<style type="text/css">
	.st0{fill:#002339;}
</style>
<path class="st0" d="M30.291,35.803l-5.503-2.164v-0.507h12.026v0.507l-5.761,2.164v19.42c0,9.251-4.46,14.387-12.84,14.387
	c-9.713,0-14.438-5.499-14.438-14.387V33.898l-3.657-0.259v-0.507h14.083v0.507l-3.651,0.259v22.714
	c0,8.225,3.704,11.615,9.614,11.615c6.784,0,10.127-5.293,10.127-12.844V35.803z M77.627,57.483L61.332,33.132h-11.71v0.507
	l5.497,0.259v32.529l-5.497,2.164v0.507h12.025v-0.507l-5.757-2.164l-0.207-28.518h0.51l21.537,31.45h1.033V35.803l5.489-2.164
	v-0.507H72.234v0.507l5.756,2.164l0.153,21.68H77.627z M100.736,68.592v0.507h14.078v-0.507l-3.648-0.267V33.899l3.648-0.259v-0.508
	h-14.078v0.508l3.648,0.259v34.426L100.736,68.592z M149.732,69.61c5.138,0,9.614-1.794,11.671-3.078l0.514-8.584h-0.514
	l-3.188,5.857c-1.133,2.419-4.216,5.294-7.813,5.294c-7.351,0-10.945-6.165-10.945-17.986c0-11.823,3.956-17.981,10.945-17.981
	c3.597,0,6.579,3.029,7.656,5.292l3.084,5.856h0.519l-0.258-8.585c-2.057-1.284-6.533-3.081-11.671-3.081
	c-10.43,0-17.618,7.71-17.618,18.499C132.114,61.91,139.302,69.61,149.732,69.61 M197.186,69.099
	c-6.829,0-10.785-6.321-10.785-17.986c0-11.662,3.956-17.981,10.785-17.981c6.841,0,10.799,6.319,10.799,17.981
	C207.985,62.778,204.027,69.099,197.186,69.099 M197.186,32.614c-9.651,0-18.14,7.71-18.14,18.499
	c0,10.797,8.489,18.497,18.14,18.497c9.663,0,18.145-7.7,18.145-18.497C215.331,40.324,206.849,32.614,197.186,32.614 M54.906,5.907
	c0.349-0.402,0.639-0.748,0.855-1.045c0.222-0.293,0.393-0.552,0.51-0.762c0.225-0.412,0.342-0.831,0.342-1.258
	c0-0.672-0.243-1.238-0.736-1.692c-0.487-0.458-1.084-0.686-1.804-0.686c-1.488,0-2.327,0.827-2.515,2.488h1.184
	c0.114-0.94,0.578-1.412,1.364-1.412c0.385,0,0.699,0.124,0.955,0.374c0.26,0.249,0.389,0.553,0.389,0.926
	c0,0.25-0.096,0.538-0.284,0.857c-0.105,0.164-0.234,0.365-0.422,0.605c-0.174,0.244-0.406,0.529-0.671,0.859L51.34,8.469h5.286
	V7.352h-2.935L54.906,5.907z M65.31,4.487c0-0.834,0.146-1.539,0.452-2.096c0.305-0.567,0.685-0.85,1.146-0.85
	c0.468,0,0.851,0.283,1.155,0.85c0.31,0.561,0.459,1.279,0.459,2.136c0,0.86-0.149,1.576-0.459,2.138
	c-0.304,0.568-0.687,0.855-1.155,0.855c-0.461,0-0.85-0.287-1.153-0.855C65.456,6.088,65.31,5.36,65.31,4.487 M64.13,4.48
	c0,1.32,0.29,2.356,0.877,3.103c0.532,0.681,1.164,1.013,1.907,1.013c0.744,0,1.37-0.332,1.896-1.013
	c0.584-0.747,0.877-1.762,0.877-3.048c0-1.291-0.293-2.307-0.877-3.057c-0.526-0.675-1.156-1.013-1.902-1.013
	c-0.742,0-1.378,0.338-1.901,1.013C64.42,2.228,64.13,3.228,64.13,4.48 M79.649,1.267c0.232,0,0.42,0.075,0.58,0.236
	c0.157,0.149,0.236,0.336,0.236,0.557c0,0.24-0.079,0.442-0.242,0.609c-0.154,0.167-0.353,0.248-0.578,0.248
	c-0.229,0-0.423-0.081-0.587-0.248C78.896,2.502,78.816,2.3,78.816,2.06c0-0.225,0.071-0.411,0.235-0.566
	C79.218,1.341,79.416,1.267,79.649,1.267 M79.658,0.482c-0.44,0-0.823,0.152-1.133,0.458c-0.307,0.3-0.462,0.669-0.462,1.116
	c0,0.434,0.155,0.802,0.458,1.112c0.314,0.304,0.683,0.46,1.124,0.46c0.431,0,0.797-0.156,1.115-0.46
	c0.301-0.31,0.461-0.685,0.461-1.116c0-0.435-0.16-0.802-0.457-1.107C80.452,0.634,80.085,0.482,79.658,0.482 M90.092,0.062v8.407
	h1.183V2.956l5.744,5.99V0.597h-1.183v5.47L90.092,0.062z M115.569,2.707c0-0.316,0.121-0.587,0.351-0.819
	c0.229-0.233,0.503-0.347,0.833-0.347c0.318,0,0.591,0.114,0.83,0.347c0.225,0.232,0.344,0.507,0.344,0.832
	c0,0.324-0.119,0.602-0.344,0.829c-0.239,0.234-0.512,0.346-0.83,0.346c-0.33,0-0.613-0.112-0.838-0.346
	C115.681,3.322,115.569,3.044,115.569,2.707 M115.429,6.192c0-0.356,0.122-0.659,0.378-0.914c0.258-0.254,0.575-0.38,0.924-0.38
	c0.359,0,0.665,0.126,0.924,0.38c0.256,0.255,0.385,0.565,0.385,0.926c0,0.365-0.129,0.674-0.385,0.932
	c-0.259,0.251-0.565,0.385-0.924,0.385s-0.677-0.134-0.924-0.394C115.551,6.867,115.429,6.557,115.429,6.192 M115.319,4.376
	c-0.71,0.353-1.063,0.973-1.063,1.856c0,0.684,0.232,1.243,0.711,1.692c0.478,0.45,1.079,0.672,1.809,0.672
	c0.706,0,1.295-0.222,1.747-0.668c0.451-0.446,0.681-1.012,0.681-1.712c0-0.408-0.095-0.77-0.275-1.102
	c-0.184-0.326-0.427-0.571-0.753-0.744c0.575-0.428,0.864-0.983,0.864-1.658c0-0.643-0.216-1.179-0.648-1.603
	c-0.438-0.431-0.982-0.644-1.63-0.644c-0.66,0-1.211,0.213-1.654,0.644c-0.434,0.427-0.654,0.96-0.654,1.602
	C114.454,3.409,114.74,3.966,115.319,4.376 M126.278,0.598v1.115h3.88l-3.927,6.429l0.94,0.597l4.97-8.141H126.278z M141.691,1.267
	c0.241,0,0.428,0.075,0.578,0.236c0.167,0.149,0.25,0.336,0.25,0.557c0,0.24-0.088,0.442-0.25,0.609
	c-0.154,0.167-0.348,0.248-0.579,0.248c-0.218,0-0.415-0.081-0.579-0.248c-0.168-0.167-0.249-0.369-0.249-0.609
	c0-0.225,0.081-0.411,0.24-0.566C141.262,1.341,141.472,1.267,141.691,1.267 M141.716,0.482c-0.454,0-0.832,0.152-1.14,0.458
	c-0.307,0.3-0.46,0.669-0.46,1.116c0,0.434,0.153,0.802,0.454,1.112c0.314,0.304,0.686,0.46,1.12,0.46
	c0.429,0,0.805-0.156,1.108-0.46c0.312-0.31,0.465-0.685,0.465-1.116c0-0.435-0.149-0.802-0.454-1.107
	C142.498,0.634,142.134,0.482,141.716,0.482 M154.577,5.86l-2.047-5.262h-1.29l3.341,8.374l2.11-5.581l2.022,5.576l3.521-8.369
	h-1.288l-2.182,5.262l-2.05-5.644L154.577,5.86z M152.416,97.914c-0.056-0.021-0.11-0.033-0.167-0.033
	c-0.197,0-0.352,0.134-0.413,0.347c-0.049,0.176-0.124,0.34-0.207,0.488c-0.362,0.62-0.688,1.18-1.054,1.726
	c-0.275,0.425-0.601,0.913-0.986,1.326c-0.495,0.529-0.96,0.934-1.417,1.24c-0.64,0.42-1.227,0.77-1.94,0.77
	c-0.2,0-0.403-0.029-0.607-0.087c-0.002-0.051-0.007-0.106-0.011-0.158c-0.01-0.122-0.022-0.246,0.009-0.359
	c0.14-0.496,0.297-0.971,0.461-1.413c0.049-0.136,0.112-0.272,0.171-0.401c0.085-0.179,0.172-0.365,0.224-0.561
	c0.049-0.159-0.015-0.409-0.139-0.534c-0.052-0.052-0.108-0.081-0.164-0.081c-0.101,0-0.198,0.081-0.291,0.242
	c-0.059,0.099-0.118,0.199-0.179,0.298c-0.146,0.242-0.297,0.496-0.472,0.718c-0.843,1.111-1.817,1.843-2.978,2.234
	c-0.335,0.114-0.69,0.225-1.05,0.225c-0.165,0-0.322-0.025-0.468-0.069c-0.119-0.388-0.197-0.845,0.059-1.291
	c0.406-0.705,0.76-1.34,1.083-1.945c0.061-0.117,0.092-0.302,0.041-0.434c-0.041-0.103-0.205-0.243-0.313-0.243
	c-0.009,0-0.018,0.001-0.027,0.002c-0.121,0.038-0.252,0.142-0.388,0.308c-0.061,0.069-0.106,0.154-0.152,0.236
	c-0.033,0.067-0.069,0.132-0.111,0.189c-0.262,0.342-0.518,0.677-0.778,1.014c-0.139,0.185-0.281,0.369-0.423,0.555
	c-0.818,1.071-1.623,1.809-2.54,2.33c-0.369,0.209-0.706,0.258-1.03,0.146c-0.04-0.475,0.054-0.823,0.309-1.181
	c0.052-0.07,0.101-0.141,0.148-0.21c0.188-0.268,0.384-0.546,0.596-0.797c0.545-0.664,1.108-1.355,1.726-2.007
	c0.195-0.211,0.436-0.392,0.67-0.57c0.13-0.095,0.267-0.194,0.386-0.297c0.12-0.1,0.23-0.207,0.338-0.308
	c0.033-0.037,0.071-0.072,0.108-0.106l0.022-0.021l-0.022-0.052c-0.019-0.027-0.03-0.057-0.05-0.084l-0.018-0.024l-0.025,0.006
	c-0.065,0.011-0.132,0.019-0.2,0.024c-0.153,0.013-0.305,0.027-0.427,0.101l-0.148,0.091c-0.394,0.241-0.807,0.492-1.111,0.832
	c-0.829,0.915-1.582,1.85-2.405,2.89c-0.42,0.54-0.627,1.076-0.627,1.643c0,0.262,0.115,0.506,0.317,0.682
	c0.188,0.164,0.432,0.259,0.666,0.259c0.118,0,0.228-0.026,0.327-0.074c0.638-0.296,1.149-0.611,1.554-0.962
	c0.416-0.383,0.796-0.802,1.198-1.247c0.139-0.16,0.288-0.324,0.436-0.487v0.006c0,0.096-0.012,0.199-0.007,0.295
	c0,0.063-0.002,0.125-0.002,0.189c-0.005,0.2-0.009,0.406,0.053,0.59c0.165,0.532,0.54,0.862,0.972,0.862
	c0.065,0,0.126-0.005,0.189-0.02c0.913-0.2,1.776-0.632,2.564-1.279c0.338-0.272,0.648-0.584,0.951-0.887
	c0.142-0.143,0.288-0.29,0.438-0.432c0.016-0.016,0.057-0.024,0.099-0.029h0.005c-0.02,0.072-0.047,0.139-0.069,0.207
	c-0.077,0.235-0.147,0.457-0.155,0.688l-0.005,0.027c-0.03,0.402-0.061,0.854,0.106,1.216c0.115,0.257,0.364,0.399,0.709,0.399
	c0.124,0,0.257-0.019,0.387-0.056c0.99-0.293,1.808-0.731,2.496-1.333c0.04-0.034,0.092-0.06,0.141-0.089v-0.003
	c-0.027,0.107-0.083,0.188-0.137,0.27l-0.009,0.014c-0.213,0.343-0.427,0.684-0.643,1.024c-0.405,0.646-0.821,1.314-1.231,1.977
	c-0.345,0.564-0.678,1.148-1.004,1.71l-0.242,0.426c-0.239,0.406-0.434,0.77-0.598,1.109c-0.389,0.803-0.8,1.66-1.182,2.508
	c-0.097,0.223-0.176,0.459-0.247,0.685c-0.039,0.116-0.075,0.234-0.117,0.35c-0.068,0.244-0.059,0.579,0.193,0.724
	c0.042,0.022,0.092,0.034,0.152,0.034c0.158,0,0.356-0.077,0.469-0.156c0.347-0.233,0.676-0.519,0.995-0.793l0.063-0.057
	c0.31-0.274,0.624-0.572,0.935-0.892c0.05-0.055,0.057-0.141,0.059-0.223c0-0.043,0.004-0.086,0.015-0.121l0.009-0.072l-0.063,0.026
	c-0.036,0.012-0.069,0.021-0.105,0.03c-0.079,0.024-0.16,0.046-0.23,0.094c-0.231,0.171-0.465,0.351-0.688,0.526
	c-0.181,0.141-0.375,0.289-0.563,0.43c-0.054,0.044-0.131,0.068-0.216,0.099c-0.028,0.01-0.056,0.017-0.084,0.028
	c0.012-0.07,0.014-0.137,0.023-0.204c0.021-0.213,0.042-0.399,0.11-0.561c0.144-0.336,0.31-0.669,0.477-0.988
	c0.074-0.145,0.148-0.288,0.22-0.434c0.137-0.263,0.272-0.529,0.406-0.793c0.307-0.597,0.621-1.216,0.969-1.805
	c0.338-0.582,0.713-1.155,1.075-1.709c0.198-0.301,0.4-0.612,0.598-0.921c0.209-0.336,0.418-0.68,0.616-1.013
	c0.173-0.293,0.355-0.597,0.537-0.888c0.137-0.217,0.287-0.434,0.43-0.639c0.152-0.219,0.31-0.447,0.458-0.677
	c0.144-0.229,0.276-0.466,0.407-0.696c0.087-0.157,0.177-0.321,0.268-0.479c0.5-0.84,1.02-1.711,1.555-2.589
	c0.054-0.098,0.144-0.283,0.092-0.434C152.549,98,152.497,97.947,152.416,97.914 M159.123,99.544
	c-0.07-0.168-0.153-0.344-0.274-0.476c-0.052-0.055-0.176-0.116-0.265-0.116c-0.02,0-0.036,0.004-0.047,0.006
	c-0.4,0.169-0.821,0.35-1.214,0.591c-0.488,0.309-0.915,0.617-1.297,0.939c-0.176,0.148-0.335,0.325-0.483,0.495
	c-0.133,0.147-0.27,0.296-0.412,0.427c-0.895,0.803-1.34,1.588-1.432,2.54c0.146,0.077,0.308,0.117,0.484,0.117
	c0.256,0,0.506-0.089,0.674-0.153c0.867-0.356,1.596-0.882,2.147-1.564c0.591-0.714,1.166-1.456,1.724-2.174l0.312-0.398
	C159.104,99.701,159.139,99.591,159.123,99.544 M165.102,103.993c0.023,0.017,0.05,0.054,0.068,0.203
	c0.027,0.212-0.11,0.363-0.239,0.428l-0.013,0.005c-0.071,0.01-0.146,0.022-0.222,0.033c-0.131,0.022-0.267,0.045-0.398,0.052
	c-0.702,0.05-1.403,0.162-2.077,0.271c-0.342,0.054-0.688,0.11-1.039,0.159c-0.301,0.038-0.609,0.042-0.908,0.045
	c-0.206,0.002-0.427,0.007-0.642,0.02c-0.46,0.028-0.918,0.083-1.417,0.145c-0.018,0.004-0.04,0.004-0.061,0.004
	c-0.38,0-0.924-0.394-1.013-0.738c-0.16-0.61-0.016-1.181,0.143-1.659c0.032-0.078,0.059-0.158,0.082-0.241
	c-0.01-0.007-0.014-0.01-0.021-0.016c-0.02,0.01-0.038,0.022-0.056,0.034c-0.059,0.038-0.113,0.074-0.146,0.122
	c-0.514,0.731-1.263,1.315-2.281,1.784c-0.297,0.134-0.67,0.2-1.142,0.2c-0.041,0-0.079-0.003-0.122-0.004
	c-0.366-0.012-0.483-0.365-0.544-0.671c-0.108-0.543,0.066-1.042,0.225-1.417c0.454-1.051,1.236-1.837,1.942-2.465
	c0.65-0.575,1.399-1.053,2.119-1.517l0.19-0.123c0.274-0.185,0.605-0.295,0.924-0.401c0.058-0.019,0.112-0.04,0.17-0.058
	c0.1-0.035,0.182-0.049,0.255-0.049c0.227,0,0.336,0.157,0.341,0.481c0.002,0.145,0.023,0.295,0.041,0.439
	c0.008,0.061,0.017,0.121,0.024,0.181c0.014,0.003,0.025,0.009,0.032,0.013c0.008,0.005,0.02,0.012,0.02,0.012
	c0.112-0.005,0.229-0.012,0.342-0.019l0.197-0.01v0.041c0,0.066,0.007,0.136,0.018,0.201c0.018,0.133,0.036,0.269-0.011,0.38
	c-0.068,0.16-0.176,0.298-0.279,0.435c-0.063,0.086-0.132,0.176-0.188,0.271c-0.104,0.169-0.207,0.339-0.307,0.506
	c-0.325,0.526-0.651,1.068-0.948,1.622c-0.166,0.313-0.29,0.69-0.373,1.133c-0.045,0.21-0.007,0.4,0.106,0.533
	c0.105,0.133,0.281,0.208,0.49,0.208h0.03c0.959-0.031,1.957-0.09,3.045-0.178c0.913-0.076,1.837-0.192,2.632-0.296
	c0.324-0.035,0.652-0.075,0.985-0.106l0.017-0.001L165.102,103.993 M125.087,100.832c-0.387,0.504-1.019,1.878-1.156,2.604
	c0.148-0.336,0.297-0.671,0.445-1.007C124.612,101.899,124.846,101.365,125.087,100.832 M135.93,93.751
	c-0.043,0.566-0.088,1.152-0.256,1.695c-0.281,0.925-0.659,1.839-1.021,2.719c-0.077,0.182-0.15,0.362-0.222,0.543
	c-0.298,0.74-0.598,1.438-0.924,2.136c-0.083,0.17-0.189,0.327-0.286,0.482c-0.087,0.131-0.173,0.264-0.247,0.409l-0.038,0.07
	c-0.839,1.573-1.705,3.2-2.531,4.815c-0.101,0.182-0.153,0.388-0.204,0.608c-0.023,0.094-0.049,0.191-0.077,0.287
	c0.025,0.007,0.047,0.017,0.067,0.021c0.081,0.028,0.151,0.053,0.214,0.095c0.096,0.063,0.15,0.149,0.15,0.241
	c0,0.097-0.054,0.19-0.155,0.258c-0.016,0.008-0.018,0.01-0.023,0.01c-0.004,0.004-0.012,0.007-0.017,0.008
	c-0.154,0.106-0.342,0.231-0.529,0.231c-0.101,0-0.197-0.037-0.28-0.11c-0.262-0.228-0.331-0.55-0.18-0.878
	c0.126-0.286,0.246-0.58,0.364-0.863c0.157-0.392,0.321-0.799,0.513-1.189c0.206-0.436,0.444-0.866,0.673-1.281
	c0.149-0.268,0.3-0.541,0.441-0.815c0.357-0.677,0.708-1.37,1.052-2.037c0.454-0.886,0.924-1.8,1.403-2.693
	c0.609-1.13,0.994-2.311,1.391-3.623c0.052-0.159,0.081-0.353,0.088-0.589c0.005-0.141,0.009-0.278,0.016-0.415
	c0.02-0.61,0.047-1.235,0.02-1.853c-0.016-0.403-0.605-0.759-0.996-0.802c-0.079-0.01-0.153-0.013-0.229-0.013
	c-0.627,0-1.162,0.28-1.684,0.551c-0.012,0.006-1.122,0.557-1.844,1.29c-0.005,0.007-0.01,0.012-0.017,0.015
	c-0.007,0.007-0.011,0.012-0.023,0.024c-0.193,0.224-0.37,0.423-0.548,0.609l-0.103,0.106c-0.931,0.974-1.897,1.978-2.518,3.201
	c-0.357,0.675-0.643,1.397-0.922,2.098c-0.153,0.392-0.314,0.796-0.485,1.187c-0.123,0.286-0.256,0.573-0.386,0.847
	c-0.113,0.239-0.23,0.481-0.338,0.726c-0.098,0.228-0.196,0.467-0.29,0.698c-0.097,0.243-0.197,0.498-0.308,0.738
	c-0.131,0.302-0.274,0.605-0.418,0.897c-0.101,0.207-0.203,0.412-0.297,0.621c-0.065,0.143-0.121,0.296-0.175,0.441
	c-0.034,0.099-0.074,0.199-0.114,0.297c-0.056,0.135-0.185,0.227-0.324,0.227c-0.084,0-0.157-0.036-0.209-0.101
	c-0.018-0.021-0.036-0.043-0.05-0.062c-0.101-0.123-0.205-0.254-0.182-0.487c0.178-1.709,0.888-3.206,1.49-4.32
	c0.295-0.553,0.634-1.093,0.967-1.618c0.299-0.471,0.605-0.958,0.877-1.452c0.287-0.509,0.514-1.058,0.73-1.588
	c0.065-0.162,0.133-0.32,0.201-0.479c0.368-0.93,0.646-1.685,0.889-2.373c0.216-0.594,0.39-1.201,0.58-1.873
	c0.028-0.092-0.004-0.163-0.038-0.207c-0.096-0.124-0.288-0.186-0.463-0.139c-0.268,0.066-0.569,0.144-0.803,0.294
	c-0.123,0.073-0.249,0.141-0.373,0.215c-0.552,0.313-1.128,0.639-1.596,1.052c-0.926,0.802-1.888,1.734-2.942,2.846
	c-0.685,0.717-1.374,1.531-2.174,2.567c-0.877,1.123-1.598,2.063-2.245,3.092c-0.515,0.836-0.951,1.742-1.375,2.624
	c-0.082,0.167-0.161,0.334-0.241,0.501c-0.342,0.704-0.638,1.442-0.924,2.153l-0.009,0.028c-0.083,0.201-0.123,0.426-0.165,0.639
	l-0.012,0.07c-0.048,0.325-0.295,0.331-0.497,0.337h-0.028c-0.118,0-0.202-0.035-0.258-0.102c-0.059-0.076-0.081-0.19-0.054-0.321
	c0.034-0.239,0.079-0.495,0.171-0.72c0.131-0.303,0.277-0.601,0.42-0.885c0.084-0.164,0.164-0.328,0.246-0.494
	c0.082-0.194,0.17-0.399,0.251-0.594c0.141-0.345,0.288-0.698,0.467-1.033c0.592-1.186,1.25-2.434,1.947-3.708
	c0.308-0.56,0.632-1.119,0.948-1.662c0.27-0.478,0.56-0.972,0.833-1.459l0.204-0.36c0.326-0.568,0.666-1.158,0.964-1.748
	c0.176-0.343,0.291-0.722,0.396-1.084l0.018-0.054c0.022-0.054,0.011-0.123,0-0.209c-0.004-0.029-0.009-0.058-0.013-0.091
	c-0.356,0.048-0.713,0.096-1.063,0.143c-0.65,0.086-1.264,0.166-1.884,0.26c-0.38,0.059-0.767,0.136-1.138,0.215
	c-0.133,0.023-0.262,0.051-0.389,0.075c-0.256,0.053-0.515,0.109-0.773,0.163c-0.463,0.099-0.939,0.201-1.408,0.287
	c-0.442,0.083-0.925,0.142-1.516,0.192c-0.544,0.044-0.994,0.062-1.419,0.048c-0.591-0.012-1.007-0.204-1.276-0.591
	c-0.111-0.166-0.261-0.391-0.063-0.604c0.065-0.068,0.139-0.103,0.213-0.103c0.129,0,0.237,0.09,0.34,0.187
	c0.35,0.326,0.775,0.449,1.361,0.405c0.263-0.023,0.535-0.032,0.792-0.04c0.449-0.017,0.913-0.032,1.364-0.101
	c0.688-0.103,1.387-0.24,2.057-0.377c0.389-0.078,0.791-0.157,1.185-0.231c0.872-0.155,1.74-0.29,2.472-0.405
	c0.452-0.065,0.911-0.106,1.351-0.149c0.243-0.022,0.436,0.043,0.54,0.181c0.092,0.123,0.117,0.291,0.056,0.49
	c-0.021,0.09-0.042,0.179-0.07,0.269c-0.101,0.415-0.211,0.84-0.485,1.234c-0.326,0.497-0.608,1.043-0.875,1.568
	c-0.144,0.29-0.296,0.586-0.458,0.873c-0.221,0.408-0.452,0.815-0.676,1.205c-0.115,0.194-0.223,0.39-0.338,0.587
	c-0.018,0.026-0.032,0.056-0.027,0.106c0.054-0.072,0.108-0.147,0.159-0.224c0.153-0.216,0.314-0.443,0.484-0.657
	c0.149-0.193,0.313-0.377,0.472-0.557c0.056-0.064,0.112-0.13,0.17-0.194c0.111-0.129,0.223-0.262,0.336-0.391
	c0.193-0.227,0.389-0.46,0.591-0.685c0.258-0.282,0.532-0.557,0.8-0.824c0.225-0.224,0.445-0.446,0.672-0.668
	c0.245-0.241,0.488-0.482,0.728-0.725c0.16-0.161,0.311-0.33,0.459-0.493c0.191-0.204,0.385-0.416,0.587-0.615
	c0.094-0.091,0.211-0.158,0.324-0.223c0.06-0.033,0.121-0.064,0.175-0.102c0.022-0.014,0.045-0.029,0.069-0.045
	c0.068-0.04,0.129-0.081,0.169-0.133c0.349-0.445,0.823-0.724,1.281-0.995c0.166-0.1,0.344-0.203,0.511-0.313
	c0.197-0.129,0.425-0.222,0.643-0.314c0.072-0.032,0.145-0.063,0.218-0.097c0.202-0.085,0.373-0.129,0.532-0.129
	c0.207,0,0.398,0.076,0.556,0.226c0.323,0.295,0.265,0.689,0.15,1.07c-0.15,0.558-0.349,1.113-0.546,1.651
	c-0.068,0.182-0.135,0.365-0.202,0.552c-0.095,0.271-0.199,0.547-0.3,0.826c-0.067,0.176-0.136,0.355-0.197,0.532
	c0.007,0.003,0.011,0.007,0.016,0.01c0.096-0.109,0.188-0.22,0.282-0.332c0.212-0.249,0.427-0.508,0.657-0.749
	c0.457-0.461,0.933-0.91,1.396-1.345l0.304-0.282c0.003-0.008,0.488-0.379,1.339-0.985l0.007,0.007
	c0.135-0.121,0.883-0.521,0.892-0.528c0.085-0.034,0.176-0.072,0.261-0.113c0.351-0.159,0.708-0.321,1.07-0.334
	c0.103-0.005,0.198-0.007,0.283-0.007c0.993,0,1.255,0.257,1.475,1.432c0.069,0.389,0.045,0.798,0.008,1.184
	C135.953,93.452,135.944,93.601,135.93,93.751 M76.437,98.92c-0.016-0.075-0.197-0.125-0.292-0.125c-0.034,0-0.06,0.007-0.083,0.016
	c-0.193,0.112-0.391,0.217-0.589,0.321c-0.573,0.307-1.169,0.625-1.693,1.022c-1.133,0.854-2.318,1.803-3.295,2.953
	c-0.142,0.169-0.299,0.328-0.45,0.483c-0.06,0.063-0.123,0.125-0.182,0.192c-0.013-0.005-0.024-0.013-0.038-0.019l0.018-0.087
	c0.029-0.147,0.052-0.296,0.09-0.44c0.254-1.019,0.457-1.804,0.65-2.543c0.023-0.091,0.044-0.18,0.067-0.268
	c0.043-0.168,0.09-0.341,0.126-0.51l0.006-0.022l-0.019-0.02c-0.049-0.038-0.101-0.075-0.164-0.113l-0.025-0.013l-0.022,0.018
	c-0.052,0.048-0.111,0.094-0.167,0.143c-0.133,0.102-0.265,0.211-0.335,0.352c-0.195,0.464-0.34,0.933-0.508,1.5
	c-0.123,0.434-0.209,0.891-0.29,1.328c-0.101,0.561-0.204,1.14-0.4,1.69c-0.054,0.176,0.098,0.461,0.229,0.583
	c0.03,0.028,0.078,0.04,0.148,0.04c0.12,0,0.302-0.049,0.396-0.134c0.104-0.099,0.176-0.232,0.247-0.359
	c0.052-0.101,0.103-0.198,0.169-0.278c0.673-0.807,1.22-1.451,1.74-2.028c0.335-0.377,0.739-0.814,1.185-1.192
	c0.532-0.448,1.103-0.876,1.656-1.29l0.294-0.219c0.151-0.116,0.333-0.212,0.518-0.268c0.186-0.071,0.393-0.117,0.589-0.159
	c0.082-0.02,0.161-0.037,0.249-0.059c0.276-0.071,0.225-0.286,0.189-0.426C76.446,98.965,76.44,98.943,76.437,98.92 M79.316,99.85
	l-0.031-0.011l-0.016,0.023c-0.042,0.055-0.089,0.107-0.14,0.16c-0.134,0.159-0.275,0.319-0.359,0.512
	c-0.128,0.296-0.227,0.608-0.328,0.908c-0.061,0.197-0.123,0.4-0.198,0.595c-0.101,0.263-0.204,0.526-0.31,0.777
	c-0.131,0.32-0.264,0.653-0.387,0.984c-0.142,0.377-0.267,0.781-0.38,1.235c-0.035,0.146-0.011,0.302,0.079,0.427
	c0.076,0.11,0.184,0.18,0.301,0.192c0.022,0.004,0.047,0.004,0.047,0.004c0.324,0,0.369-0.286,0.387-0.444
	c0-0.011,0.009-0.025,0.016-0.041c0.004-0.017,0.011-0.031,0.015-0.05c0.185-1.124,0.594-2.199,0.985-3.241l0.081-0.216
	c0.14-0.372,0.234-0.768,0.328-1.15c0.043-0.174,0.081-0.348,0.126-0.52l0.012-0.034l-0.033-0.015
	C79.438,99.905,79.377,99.876,79.316,99.85 M81.125,93.831c-0.013-0.063-0.065-0.116-0.119-0.176
	c-0.036-0.032-0.069-0.07-0.103-0.113l-0.031-0.038l-0.035,0.037c-0.04,0.047-0.087,0.088-0.134,0.132
	c-0.103,0.092-0.187,0.174-0.209,0.275c-0.045,0.191-0.056,0.396-0.072,0.591c-0.009,0.116-0.009,0.237-0.027,0.354
	c-0.009,0.135,0.018,0.246,0.074,0.31c0.04,0.044,0.093,0.067,0.15,0.067c0.019,0,0.032-0.001,0.052-0.004
	c0.138-0.031,0.29-0.212,0.358-0.361c0.038-0.065,0.045-0.146,0.049-0.226c0-0.07,0.005-0.139,0.036-0.175
	c0.166-0.184,0.106-0.358,0.054-0.511C81.153,93.937,81.135,93.886,81.125,93.831 M66.971,95.23L66.971,95.23v0.003V95.23z
	 M67.315,93.685c0.063,0.086,0.129,0.173,0.169,0.271c0.058,0.172,0.092,0.373-0.059,0.579c-0.058,0.076-0.056,0.219-0.051,0.323
	c0.009,0.248-0.142,0.406-0.392,0.414h-0.011c-0.078,0-0.146-0.026-0.191-0.08c-0.056-0.069-0.081-0.18-0.063-0.305
	c0.011-0.065,0.011-0.135,0.007-0.202v-0.061l-0.025-0.004l0.004-0.041c0.009-0.057,0.014-0.111,0.021-0.171
	c0.014-0.17,0.026-0.347,0.099-0.499c0.047-0.098,0.157-0.161,0.263-0.22c0.044-0.026,0.088-0.05,0.128-0.078l0.029-0.023
	l0.02,0.031C67.282,93.64,67.294,93.663,67.315,93.685 M51.513,100.213c0.011-0.145,0.026-0.281-0.025-0.334
	c-0.344-0.354-0.728-0.66-1.106-0.956c-0.044-0.031-0.108-0.041-0.178-0.053c-0.082-0.013-0.168-0.025-0.23-0.075
	c-0.215-0.197-0.457-0.247-0.767-0.252c0.402,0.788,1.292,1.509,2.285,1.856C51.497,100.337,51.502,100.274,51.513,100.213
	 M54.077,100.576v0.018c0.106-0.011,0.212-0.021,0.31-0.031c0.241-0.021,0.484-0.041,0.718-0.087l0.272-0.05
	c1.124-0.206,2.286-0.419,3.364-0.877c1.062-0.458,2.146-1.009,2.62-2.262c0.235-0.658,0.164-1.225-0.221-1.735
	c-0.456-0.627-1.123-1.083-2.038-1.395c-0.688-0.24-1.405-0.359-2.14-0.359c-0.713,0-1.459,0.111-2.219,0.33
	c-0.202,0.057-0.418,0.218-0.517,0.382c-0.297,0.494-0.517,0.952-0.679,1.402c-0.391,1.083-0.737,2.155-1.138,3.434
	c-0.08,0.252-0.017,0.562,0.176,0.828c0.204,0.284,0.514,0.461,0.8,0.461c0.133-0.007,0.254-0.018,0.38-0.03
	c0.09-0.009,0.178-0.018,0.268-0.026L54.077,100.576z M65.492,100.425c0.11,0.036,0.23,0.232,0.211,0.338
	c-0.105,0.546-0.236,1.18-0.417,1.778c-0.108,0.35-0.242,0.702-0.371,1.04c-0.093,0.24-0.183,0.487-0.27,0.733
	c-0.009,0.036,0.009,0.093,0.029,0.152c0.016,0.057,0.038,0.119,0.034,0.178v0.015c-0.018,0.244-0.027,0.493-0.107,0.725
	c-0.028,0.093-0.256,0.161-0.347,0.161c0,0-0.034,0-0.054-0.025l-0.043-0.05c-0.144-0.164-0.306-0.349-0.295-0.527
	c0.043-0.416,0.145-0.87,0.304-1.393c0.121-0.384,0.259-0.769,0.388-1.141c0.086-0.238,0.174-0.483,0.257-0.722
	c-0.004-0.004-0.006-0.006-0.013-0.007c-0.007-0.007-0.026-0.016-0.034-0.024c-0.056,0.064-0.114,0.127-0.171,0.191
	c-0.137,0.159-0.267,0.307-0.389,0.473c-0.537,0.74-1.023,1.257-1.576,1.681c-0.732,0.558-1.584,0.923-2.526,1.079
	c-0.373,0.061-0.735,0.094-1.088,0.094c-0.866,0-1.669-0.186-2.453-0.561c-1.33-0.64-2.371-1.444-3.18-2.46
	c-0.061-0.078-0.132-0.154-0.198-0.227c-0.135-0.15-0.277-0.301-0.377-0.48c-0.151-0.265-0.362-0.382-0.697-0.382
	c-0.063,0-0.129,0.004-0.214,0.01c-0.047,0.193-0.099,0.387-0.148,0.578c-0.196,0.738-0.396,1.497-0.607,2.242
	c-0.101,0.357-0.221,0.714-0.34,1.063c-0.085,0.263-0.18,0.537-0.26,0.808c-0.313,0.988-0.603,1.98-0.866,2.908
	c-0.094,0.335-0.182,0.678-0.27,1.011c-0.141,0.535-0.288,1.092-0.454,1.633c-0.052,0.161-0.317,0.28-0.477,0.32
	c-0.008,0.002-0.033,0.002-0.033,0.002c-0.117,0-0.265-0.109-0.359-0.202c-0.079-0.085-0.129-0.239-0.129-0.371
	c0-0.688,0.018-1.441,0.05-2.232c0.004-0.085,0.083-0.169,0.253-0.261l0.073-0.043l-0.017,0.086
	c-0.107,0.619-0.004,1.203,0.103,1.766l0.026,0.147h0.011c0.014,0.002,0.034,0.004,0.048,0.006c0.305-1.06,0.613-2.117,0.917-3.174
	c0.62-2.133,1.256-4.34,1.881-6.52c-1.144-0.364-1.909-1.155-2.573-1.955c-0.16-0.194-0.219-0.487-0.273-0.747l-0.011-0.061
	c-0.023-0.099,0.002-0.195,0.065-0.272c0.113-0.136,0.313-0.201,0.522-0.161c0.614,0.102,1.398,0.297,2.036,0.882
	c0.145,0.135,0.295,0.257,0.457,0.389c0.089,0.075,0.179,0.15,0.272,0.227c0.33-1.007,0.674-2.067,1.105-3.422
	c0-0.002,0-0.002-0.004-0.002c-0.003-0.001-0.005-0.005-0.009-0.006c-0.072,0.082-0.137,0.165-0.207,0.246
	c-0.09,0.104-0.173,0.209-0.265,0.313l-0.024,0.027l-0.073-0.052c-0.025-0.023-0.054-0.046-0.087-0.067l-0.037-0.025l0.032-0.034
	c0.043-0.054,0.088-0.109,0.128-0.166c0.084-0.111,0.171-0.226,0.277-0.312c0.461-0.375,0.692-0.884,0.921-1.459
	c0.362-0.925,0.699-1.873,1.025-2.79l0.205-0.577c0.023-0.072,0.04-0.155,0.054-0.235c0.02-0.129,0.047-0.262,0.121-0.352
	c0.146-0.161,0.324-0.281,0.507-0.408c0.082-0.056,0.165-0.112,0.244-0.174l0.038-0.028l0.023,0.039
	c0.056,0.088,0.087,0.157,0.124,0.217c0.026,0.052,0.049,0.097,0.08,0.145l0.021,0.039l-0.039,0.019
	c-0.413,0.236-0.53,0.626-0.653,1.04c-0.044,0.144-0.082,0.289-0.138,0.426c-0.229,0.534-0.404,1.094-0.577,1.638
	c-0.068,0.211-0.136,0.425-0.205,0.637c0,0.007,0.004,0.022,0.008,0.038c0,0.005,0,0.006,0.005,0.013
	c0.021-0.007,0.043-0.013,0.061-0.02c0.083-0.019,0.15-0.041,0.218-0.078c0.593-0.348,1.299-0.525,2.219-0.552
	c0.101-0.005,0.202-0.006,0.303-0.006c0.954,0,1.71,0.142,2.369,0.45c0.682,0.325,1.234,0.67,1.738,1.089
	c0.64,0.525,0.771,1.223,0.892,1.896c0.034,0.204-0.022,0.442-0.078,0.648c-0.349,1.237-1.227,2.108-2.682,2.665
	c-0.94,0.36-1.953,0.663-3.005,0.904c-0.443,0.104-0.911,0.138-1.365,0.168c-0.247,0.018-0.501,0.035-0.746,0.065
	c-0.198,0.02-0.391,0.054-0.616,0.093c-0.085,0.014-0.182,0.032-0.279,0.048c0.093,0.101,0.18,0.201,0.265,0.298
	c0.205,0.233,0.398,0.451,0.614,0.647c0.097,0.096,0.192,0.193,0.286,0.291c0.359,0.363,0.732,0.743,1.175,0.984l0.186,0.106
	c0.758,0.43,1.543,0.871,2.463,0.913c0.274,0.01,0.537,0.023,0.804,0.023c0.449,0,0.82-0.035,1.167-0.108
	c1.184-0.249,2.092-0.748,2.775-1.519c0.286-0.32,0.547-0.67,0.799-1.012c0.15-0.198,0.305-0.403,0.463-0.603l0.098-0.126
	c0.169-0.218,0.345-0.442,0.544-0.635c0.059-0.059,0.169-0.092,0.291-0.092C65.407,100.408,65.454,100.414,65.492,100.425
	 M102.887,99.5c0.014-0.094-0.026-0.223-0.092-0.297c0,0-0.006-0.006-0.037-0.006c-0.059,0-0.145,0.022-0.204,0.043
	c-0.174,0.071-0.347,0.167-0.498,0.253c-0.63,0.357-1.182,0.851-1.686,1.509l-0.094,0.122c-0.328,0.44-0.673,0.896-0.976,1.357
	c-0.353,0.527-0.542,1.1-0.58,1.759c-0.013,0.254,0.067,0.287,0.287,0.357c0.127-0.056,0.255-0.111,0.38-0.164
	c0.335-0.138,0.648-0.273,0.924-0.468c0.526-0.361,0.981-0.793,1.396-1.207l0.066-0.069c0.445-0.453,0.867-0.88,0.879-1.58
	c0.01-0.335,0.076-0.676,0.137-1.003C102.824,99.908,102.861,99.7,102.887,99.5 M109.62,103.277c0.018,0.017,0.04,0.03,0.056,0.042
	l0.036,0.025l-0.022,0.033c-0.019,0.024-0.03,0.051-0.044,0.08c-0.029,0.06-0.057,0.122-0.111,0.159
	c-0.534,0.314-1.129,0.4-1.705,0.483l-0.119,0.016c-0.359,0.05-0.714,0.095-1.072,0.143c-0.749,0.099-1.521,0.199-2.279,0.327
	c-0.166,0.03-0.326,0.044-0.469,0.044c-0.713,0-1.194-0.341-1.471-1.039c-0.07-0.18-0.07-0.383-0.072-0.6v-0.193
	c-0.074,0.075-0.141,0.153-0.211,0.229c-0.182,0.204-0.373,0.413-0.566,0.617c-0.598,0.639-1.345,1.33-2.357,1.636
	c-0.153,0.048-0.315,0.074-0.476,0.074c-0.414-0.003-0.62-0.209-0.699-0.685c-0.171-1.101,0.316-1.988,0.816-2.707
	c0.528-0.757,1.076-1.539,1.747-2.206c0.437-0.432,0.991-0.769,1.525-1.095c0.111-0.069,0.223-0.137,0.329-0.202
	c0.124-0.075,0.241-0.113,0.353-0.113c0.299,0,0.508,0.277,0.519,0.688c0.009,0.428-0.068,0.864-0.146,1.286
	c-0.03,0.157-0.061,0.313-0.083,0.468c-0.015,0.086-0.027,0.207-0.022,0.281c0.35-0.589,0.588-0.973,0.916-1.5
	c0.057-0.104,0.229-0.216,0.333-0.216c0.018,0,0.029,0,0.044,0.005c0.154,0.068,0.275,0.237,0.331,0.36
	c0.046,0.083,0.009,0.246-0.06,0.348c-0.159,0.274-0.344,0.542-0.517,0.799c-0.392,0.566-0.796,1.156-0.969,1.847
	c-0.083,0.333-0.047,0.614,0.105,0.811c0.155,0.205,0.425,0.314,0.783,0.319h0.115h0.001c0.65,0,1.291-0.103,1.918-0.202
	c0.423-0.067,0.861-0.136,1.295-0.175c0.524-0.046,1.042-0.116,1.553-0.182c0.066-0.011,0.137-0.031,0.207-0.049
	c0.089-0.026,0.18-0.055,0.281-0.059C109.487,103.174,109.559,103.23,109.62,103.277 M84.376,102.095
	c0.621,0,1.59-0.567,2.003-1.161c0.133-0.194,0.266-0.477,0.185-0.759c-1.084,0.536-1.77,1.132-2.212,1.92H84.376z M95.892,104.35
	c0.054,0.011,0.119,0.075,0.131,0.131c0.015,0.053-0.054,0.124-0.099,0.148l-0.077,0.038c-0.148,0.077-0.305,0.157-0.469,0.214
	c-0.174,0.062-0.358,0.103-0.538,0.143l-0.123,0.027c-0.198,0.047-0.403,0.091-0.601,0.135l-0.146,0.029
	c-0.023,0.008-0.047,0.01-0.079,0.01c-0.211,0-0.57-0.128-0.786-0.205c-0.059-0.019-0.103-0.039-0.126-0.044
	c-0.189-0.051-0.395-0.656-0.411-0.791c-0.012-0.085,0.091-0.384,0.227-0.765c0.031-0.094,0.061-0.176,0.08-0.231
	c0.073-0.215,0.178-0.427,0.352-0.679c0.141-0.214,0.305-0.45,0.448-0.697c0.073-0.132,0.228-0.533,0.293-0.704l0.027-0.071
	c0.083-0.209,0.02-0.381-0.113-0.575l-0.013-0.017c-0.044-0.067-0.083-0.126-0.13-0.18l-0.01-0.009
	c-0.063-0.072-0.183-0.204-0.274-0.204c0,0-0.008,0.005-0.022,0.019c-0.178,0.21-0.682,0.576-0.731,0.608
	c-0.193,0.13-0.712,0.581-0.777,0.666v0.008l-0.012,0.013c-0.206,0.234-0.455,0.463-0.64,0.631
	c-0.047,0.041-0.092,0.081-0.131,0.118c-0.315,0.296-0.982,0.839-2.349,1.747c-0.047,0.031-0.07,0.05-0.076,0.054
	c-0.121,0.107-1.232,0.586-1.357,0.638c-1.063,0.437-1.884,0.605-2.196,0.671l-0.066,0.012c-0.4,0.085-0.729,0.143-1.045,0.143
	c-0.149,0-0.285-0.012-0.428-0.036c-0.179-0.035-0.635-0.373-0.736-0.581c-0.237-0.474-0.138-0.92-0.034-1.393l0.013-0.07v-0.079
	v-0.024c-0.099,0.027-0.179,0.038-0.252,0.038c-0.197,0-0.335-0.091-0.408-0.275c-0.019-0.062-0.075-0.262-0.014-0.412
	c0.014-0.075,0.176-0.131,0.277-0.131c0.017,0,0.035,0.003,0.051,0.009c0.117,0.036,0.229,0.053,0.329,0.053
	c0.453,0,0.678-0.372,0.912-0.769l0.038-0.055c0.618-1.055,1.533-1.81,2.698-2.242c0.078-0.028,0.15-0.04,0.225-0.04
	c0.242,0,0.397,0.171,0.411,0.459c0.08,1.063-0.54,1.71-1.152,2.203c-0.38,0.298-0.815,0.451-1.236,0.598
	c-0.247,0.085-0.496,0.172-0.735,0.288c-0.222,0.107-0.44,0.456-0.519,0.831c-0.058,0.284-0.029,0.519,0.088,0.654
	c0.07,0.085,0.393,0.29,0.535,0.297c0.683,0.04,1.297-0.15,2.016-0.376l0.142-0.043c0.788-0.245,1.351-0.484,2.01-0.855l0.258-0.143
	c0.715-0.399,1.692-0.946,2.09-1.289c0.184-0.154,0.443-0.409,0.692-0.65c0.301-0.295,0.612-0.6,0.814-0.757
	c0.041-0.03,0.081-0.059,0.124-0.087c0.123-0.09,0.256-0.182,0.334-0.326c0.032-0.062,0.084-0.113,0.129-0.164
	c0.047-0.054,0.092-0.102,0.119-0.158c0.061-0.108,0.088-0.242,0.101-0.392c0.007-0.128,0.038-0.25,0.218-0.289
	c0.117-0.025,0.236-0.053,0.355-0.082c0.119-0.027,0.239-0.053,0.356-0.08c0.099-0.019,0.249,0.068,0.317,0.155
	c0.045,0.057,0.067,0.109,0.054,0.154c-0.021,0.087,0.017,0.146,0.06,0.207c0.013,0.023,0.032,0.046,0.041,0.068
	c0.042,0.081,0.103,0.158,0.159,0.236c0.078,0.102,0.155,0.21,0.202,0.333c0.092,0.236,0.129,0.488,0.117,0.71
	c-0.033,0.411-0.173,0.805-0.415,1.171l-0.059,0.088c-0.189,0.281-0.63,0.936-0.706,1.111c-0.044,0.087-0.351,0.92-0.351,1.173
	c0,0.011,0.014,0.043,0.056,0.084c0.075,0.076,0.216,0.156,0.275,0.156l0.093-0.004c0.105,0,0.219-0.002,0.332-0.01
	c0.386-0.03,1.421-0.2,1.493-0.245c0.056-0.047,0.125-0.071,0.197-0.071c0.05,0,0.095,0.01,0.139,0.018L95.892,104.35"/>
</svg>
